<?xml version="1.0" standalone="no"?><!DOCTYPE svg PUBLIC "-//W3C//DTD SVG 1.1//EN" "http://www.w3.org/Graphics/SVG/1.1/DTD/svg11.dtd"><svg t="1689218862469" class="icon" viewBox="0 0 1024 1024" version="1.1" xmlns="http://www.w3.org/2000/svg" p-id="1338" xmlns:xlink="http://www.w3.org/1999/xlink" width="128" height="128"><path d="M 571.733 512 l 234.667 -234.667 c 17.0667 -17.0667 17.0667 -42.6667 0 -59.7333 c -17.0667 -17.0667 -42.6667 -17.0667 -59.7333 0 L 512 452.267 L 277.333 217.6 c -17.0667 -17.0667 -42.6667 -17.0667 -59.7333 0 c -17.0667 17.0667 -17.0667 42.6667 0 59.7333 l 234.667 234.667 l -234.667 234.667 c -17.0667 17.0667 -17.0667 42.6667 0 59.7333 c 17.0667 17.0667 42.6667 17.0667 59.7333 0 l 234.667 -234.667 l 234.667 234.667 c 17.0667 17.0667 42.6667 17.0667 59.7333 0 c 17.0667 -17.0667 17.0667 -42.6667 0 -59.7333 L 571.733 512 Z" p-id="1339"></path></svg>