<?xml version="1.0" standalone="no"?><!DOCTYPE svg PUBLIC "-//W3C//DTD SVG 1.1//EN" "http://www.w3.org/Graphics/SVG/1.1/DTD/svg11.dtd"><svg t="1689573370434" class="icon" viewBox="0 0 1024 1024" version="1.1" xmlns="http://www.w3.org/2000/svg" p-id="5940" xmlns:xlink="http://www.w3.org/1999/xlink" width="128" height="128"><path d="M512 64a448 448 0 1 1 0 896A448 448 0 0 1 512 64z m0 576a64 64 0 1 0 0 128 64 64 0 0 0 0-128z m0-384a57.92 57.92 0 0 0-57.6 63.68l22.4 224.448a35.328 35.328 0 0 0 70.4 0l22.4-224.448A57.92 57.92 0 0 0 512 256z" p-id="5941"></path></svg>