<?xml version="1.0" encoding="UTF-8"?>
<svg width="16px" height="16px" viewBox="0 0 16 16" version="1.1" xmlns="http://www.w3.org/2000/svg" xmlns:xlink="http://www.w3.org/1999/xlink">
    <title>2</title>
    <g id="7.甘特图" stroke="none" stroke-width="1" fill-rule="evenodd">
        <path d="M4,0 L4,2 L2,2 L2,10 L14,10 L14,2 L12,2 L12,0 L15,0 C15.6,0 16,0.4 16,1 L16,15 C16,15.6 15.6,16 15,16 L1,16 C0.4,16 0,15.6 0,15 L0,1 C0,0.4 0.4,0 1,0 L4,0 Z M8,0 L12,4 L9,4 L9,8 L7,8 L7,4 L4,4 L8,0 Z" id="形状结合" fill-rule="nonzero"></path>
    </g>
</svg>
