<?xml version="1.0" standalone="no"?><!DOCTYPE svg PUBLIC "-//W3C//DTD SVG 1.1//EN" "http://www.w3.org/Graphics/SVG/1.1/DTD/svg11.dtd"><svg t="1687249139289" class="icon" viewBox="0 0 1024 1024" version="1.1" xmlns="http://www.w3.org/2000/svg" p-id="1620" width="128" height="128" xmlns:xlink="http://www.w3.org/1999/xlink"><path d="M686.5 220c30 0 54.4-23.2 54.4-51.9v-51.9c0-28.7-24.4-51.9-54.4-51.9-30.1 0-54.4 23.2-54.4 51.9v51.9c0 28.7 24.4 51.9 54.4 51.9zM336.6 220c30 0 54.4-23.2 54.4-51.9v-51.9c0-28.7-24.4-51.9-54.4-51.9-30.1 0-54.4 23.2-54.4 51.9v51.9c0 28.7 24.3 51.9 54.4 51.9z" p-id="1621"></path><path d="M776.6 146.5v31.9c0 40.2-40.6 72.9-90.6 72.9-50.1 0-90.7-32.6-90.7-72.9V142H426.5v36.4c0 40.2-40.6 72.9-90.6 72.9-50.1 0-90.7-32.6-90.7-72.9v-31.3c-47.5 14.7-82 59.1-82 111.7v584.1c0 64.5 52 116.8 116.2 116.8h465c64.2 0 116.2-52.3 116.2-116.8V258.8c0.1-53.3-35.4-98.3-84-112.3z m-43.1 668.8h-443c-18.4 0-33.2-15.4-33.2-34.5 0-19 14.9-34.5 33.2-34.5h443.1c18.4 0 33.2 15.4 33.2 34.5s-14.9 34.5-33.3 34.5z m0-183h-443c-18.4 0-33.2-15.4-33.2-34.5 0-19 14.9-34.5 33.2-34.5h443.1c18.4 0 33.2 15.4 33.2 34.5s-14.9 34.5-33.3 34.5z m0-183h-443c-18.4 0-33.2-15.4-33.2-34.5 0-19 14.9-34.5 33.2-34.5h443.1c18.4 0 33.2 15.4 33.2 34.5s-14.9 34.5-33.3 34.5z" p-id="1622"></path></svg>