<?xml version="1.0" standalone="no"?><!DOCTYPE svg PUBLIC "-//W3C//DTD SVG 1.1//EN" "http://www.w3.org/Graphics/SVG/1.1/DTD/svg11.dtd"><svg t="1689577066605" class="icon" viewBox="0 0 1024 1024" version="1.1" xmlns="http://www.w3.org/2000/svg" p-id="6242" xmlns:xlink="http://www.w3.org/1999/xlink" width="128" height="128"><path d="M512 32a480 480 0 1 1 0 960 480 480 0 0 1 0-960zM512 128a384 384 0 1 0 0 768A384 384 0 0 0 512 128z" p-id="6243"></path><path d="M320 464m48 0l288 0q48 0 48 48l0 0q0 48-48 48l-288 0q-48 0-48-48l0 0q0-48 48-48Z" p-id="6244"></path><path d="M560 320m0 48l0 288q0 48-48 48l0 0q-48 0-48-48l0-288q0-48 48-48l0 0q48 0 48 48Z" p-id="6245"></path></svg>