<?xml version="1.0" standalone="no"?><!DOCTYPE svg PUBLIC "-//W3C//DTD SVG 1.1//EN" "http://www.w3.org/Graphics/SVG/1.1/DTD/svg11.dtd"><svg t="1687249519352" class="icon" viewBox="0 0 1160 1024" version="1.1" xmlns="http://www.w3.org/2000/svg" p-id="1151" xmlns:xlink="http://www.w3.org/1999/xlink" width="145" height="128"><path d="M979.217067 453.3248h-54.408534V235.7248h54.3744V72.533333h108.817067v163.191467h54.408533v217.6h-54.408533v380.791467a163.191467 163.191467 0 1 1-326.417067 0v-217.6h-108.782933v272.042666h54.408533v108.782934H0V888.490667h54.408533V72.533333c0-30.037333 24.337067-54.408533 54.3744-54.408533h489.608534c30.037333 0 54.408533 24.3712 54.408533 54.408533v435.2h108.817067a108.817067 108.817067 0 0 1 108.782933 108.817067v217.6a54.408533 54.408533 0 0 0 108.817067 0V453.290667z m-598.4256 0V235.7248L163.191467 562.176h163.2256v217.6l217.565866-326.417067h-163.157333z" p-id="1152"></path></svg>