<?xml version="1.0" standalone="no"?><!DOCTYPE svg PUBLIC "-//W3C//DTD SVG 1.1//EN" "http://www.w3.org/Graphics/SVG/1.1/DTD/svg11.dtd"><svg t="1692251555306" class="icon" viewBox="0 0 1024 1024" version="1.1" xmlns="http://www.w3.org/2000/svg" p-id="1491" xmlns:xlink="http://www.w3.org/1999/xlink" width="128" height="128"><path d="M512 104a408.11 408.11 0 0 1 158.8 784 408.11 408.11 0 0 1-317.6-751.9A405.29 405.29 0 0 1 512 104m0-40C264.58 64 64 264.58 64 512s200.58 448 448 448 448-200.58 448-448S759.42 64 512 64z" p-id="1492"></path><path d="M413.1 323.07a12.63 12.63 0 0 1 7.46 2.53l248.31 175.59a13.23 13.23 0 0 1 0 21.62L420.56 698.4a12.63 12.63 0 0 1-7.46 2.53c-5.57 0-13.42-4.14-13.42-13.34V336.41c0-9.2 7.85-13.34 13.42-13.34m0-41.07c-28.19 0-54.5 22.35-54.5 54.41v351.18c0 32.06 26.31 54.41 54.5 54.41a53.6 53.6 0 0 0 31.17-10.06l248.32-175.6a54.31 54.31 0 0 0 0-88.68l-248.32-175.6A53.62 53.62 0 0 0 413.1 282z" p-id="1493"></path></svg>